<svg width="161" height="152" viewBox="0 0 161 152" fill="none" xmlns="http://www.w3.org/2000/svg">
<path opacity="0.5" d="M154.208 89.6235L109.451 63.8146C107.019 62.4105 102.769 62.582 99.9569 64.1935L6.02875 118.025C3.21667 119.637 2.90822 122.078 5.33975 123.482L50.0966 149.291C52.5282 150.695 56.7783 150.524 59.5904 148.912L153.523 95.0805C156.335 93.4689 156.643 91.0277 154.212 89.6235H154.208Z" fill="black" fill-opacity="0.25"/>
<path d="M48.7908 139.73L2.21522 112.872C0.685 111.99 -0.0280342 110.797 0.0240414 109.561H0.0120239L0.032053 102.835L2.62381 105.855C2.79206 105.743 2.9603 105.635 3.14457 105.528L98.4267 50.9221C102.208 48.7561 107.929 48.5247 111.197 50.4115L157.12 76.8946C158.049 75.8814 160 73.7393 160 73.7393L159.976 80.3211C160.044 81.8051 158.983 83.3847 156.847 84.6093L61.5613 139.215C57.7798 141.381 52.0595 141.612 48.7908 139.726V139.73Z" fill="#8852A7"/>
<path d="M23.6062 123.255L26.2901 124.798C26.6466 125.002 26.9351 124.787 26.9351 124.312C26.9351 123.837 26.6466 123.291 26.2901 123.083L23.6062 121.539C23.2497 121.336 22.9613 121.551 22.9613 122.026C22.9613 122.501 23.2497 123.047 23.6062 123.255Z" fill="url(#paint0_linear_8_1296)"/>
<path d="M98.4267 50.9221C102.208 48.7561 107.928 48.5247 111.197 50.4115L157.12 76.8946C158.049 75.8814 160 73.7393 160 73.7393L159.976 80.3211C160.044 81.8051 158.983 83.3847 156.847 84.6093L61.5613 139.215C59.5864 140.348 57.0868 140.942 54.6833 140.994L54.7754 75.9292L98.4227 50.9141L98.4267 50.9221Z" fill="url(#paint1_linear_8_1296)"/>
<path d="M157.797 70.5082L111.217 43.6502C107.945 41.7634 102.228 41.9907 98.4469 44.1608L3.16071 98.7624C-0.62077 100.928 -1.03737 104.215 2.23537 106.102L48.8149 132.96C52.0877 134.847 57.8039 134.62 61.5854 132.45L156.872 77.844C160.653 75.678 161.07 72.391 157.797 70.5042V70.5082Z" fill="#EDE4F1"/>
<path d="M48.7747 133.682L2.19919 106.824C0.512749 105.851 -0.188267 104.507 0.0440698 103.135C0.128192 104.247 0.845232 105.305 2.23525 106.106L48.8148 132.964C52.0875 134.851 57.8038 134.624 61.5853 132.454L156.871 77.8482C158.702 76.7991 159.74 75.4867 159.956 74.1982C160.068 75.7061 159.015 77.3216 156.839 78.5662L61.5533 133.172C57.7718 135.338 52.0515 135.569 48.7827 133.682H48.7747Z" fill="white"/>
<path d="M154.208 71.5654L109.451 45.7565C107.019 44.3523 102.769 44.5239 99.9569 46.1354L6.02875 99.9672C3.21667 101.579 2.90822 104.02 5.33975 105.424L50.0966 131.233C52.5282 132.637 56.7783 132.466 59.5904 130.854L153.523 77.0224C156.335 75.4108 156.643 72.9695 154.212 71.5654H154.208Z" fill="url(#paint2_linear_8_1296)"/>
<path d="M61.369 117.826L29.7872 99.668L31.8021 98.5112L63.3839 116.669L61.369 117.826Z" fill="#EDE4F1"/>
<path d="M39.3931 112.533L23.4019 103.338L25.4168 102.181L41.408 111.376L39.3931 112.533Z" fill="#EDE4F1"/>
<path d="M47.1563 116.997L41.9688 114.013L43.9837 112.856L49.1713 115.836L47.1563 116.997Z" fill="#9768B2"/>
<path d="M54.9837 121.496L49.8002 118.516L51.8151 117.355L57.0026 120.339L54.9837 121.496Z" fill="white"/>
<path d="M39.5734 108.966L26.5945 101.503L28.6095 100.346L41.5883 107.806L39.5734 108.966Z" fill="white"/>
<path d="M55.4163 118.073L42.4375 110.614L44.4524 109.453L57.4312 116.917L55.4163 118.073Z" fill="#EDE4F1"/>
<path d="M45.8064 102.125C45.1574 102.5 44.1039 102.5 43.455 102.125C42.806 101.75 42.806 101.148 43.455 100.773C44.1039 100.398 45.1574 100.398 45.8064 100.773C46.4553 101.148 46.4553 101.75 45.8064 102.125Z" fill="#9768B2"/>
<path d="M49.3194 104.144C48.6705 104.519 47.617 104.519 46.968 104.144C46.3191 103.769 46.3191 103.166 46.968 102.791C47.617 102.417 48.6705 102.417 49.3194 102.791C49.9684 103.166 49.9684 103.769 49.3194 104.144Z" fill="white"/>
<path d="M52.8366 106.166C52.1876 106.541 51.1341 106.541 50.4852 106.166C49.8362 105.791 49.8362 105.189 50.4852 104.814C51.1341 104.439 52.1876 104.439 52.8366 104.814C53.4855 105.189 53.4855 105.791 52.8366 106.166Z" fill="#EDE4F1"/>
<path d="M56.3496 108.184C55.7007 108.559 54.6472 108.559 53.9982 108.184C53.3493 107.809 53.3493 107.207 53.9982 106.832C54.6472 106.457 55.7007 106.457 56.3496 106.832C56.9986 107.207 56.9986 107.809 56.3496 108.184Z" fill="#9768B2"/>
<path d="M59.8628 110.207C59.2138 110.582 58.1603 110.582 57.5114 110.207C56.8624 109.832 56.8624 109.229 57.5114 108.854C58.1603 108.48 59.2138 108.48 59.8628 108.854C60.5117 109.229 60.5117 109.832 59.8628 110.207Z" fill="white"/>
<path d="M130.501 71.7648L125.182 68.7092L127.249 67.5205L132.564 70.5761L130.501 71.7648Z" fill="#9768B2"/>
<path d="M137.904 76.0212L132.588 72.9656L134.651 71.7769L139.971 74.8324L137.904 76.0212Z" fill="white"/>
<path d="M106.747 57.9827L101.431 54.9231L103.498 53.7344L108.814 56.7939L106.747 57.9827Z" fill="white"/>
<path d="M129.316 74.8444L121.909 70.5881L123.976 69.3994L131.382 73.6557L129.316 74.8444Z" fill="white"/>
<path d="M134.631 77.9037L131.383 76.0329L133.45 74.8481L136.698 76.715L134.631 77.9037Z" fill="#EDE4F1"/>
<path opacity="0.5" d="M92.1255 147.101L110.66 136.447C112.123 135.605 114.498 135.557 116.421 136.239L121.52 133.267C116.737 129.717 116.301 124.854 120.218 121.069C120.983 122.146 122.121 123.159 123.643 124.037C129.78 127.567 139.735 127.567 145.871 124.037C148.267 122.66 149.713 120.945 150.238 119.162C157.236 123.422 157.116 130.14 149.861 134.308C142.695 138.429 131.218 138.537 123.795 134.659L118.652 137.659C119.521 138.7 119.329 139.901 117.999 140.663L99.4642 151.318C97.7096 152.327 94.6452 152.199 92.6223 151.034C90.5953 149.87 90.379 148.11 92.1296 147.101H92.1255Z" fill="#252525"/>
<path opacity="0.5" d="M145.872 113.617C139.735 110.087 129.78 110.087 123.643 113.617C121.1 115.081 119.613 116.92 119.177 118.823C119.561 120.502 120.763 122.13 122.79 123.498C123.295 123.087 123.864 122.692 124.505 122.325C130.641 118.795 140.592 118.795 146.733 122.325C147.037 122.501 147.318 122.68 147.59 122.864C149.096 121.643 150.014 120.251 150.338 118.827C149.905 116.924 148.415 115.081 145.872 113.617Z" fill="black"/>
<path d="M118.804 121.644L121.204 118.532L128.486 115.161L134.759 114.607L142.106 115.504L147.201 118.129L150.458 120.2L151.043 116.829L149.945 112.947C149.945 112.947 147.161 111.113 146.989 110.945C146.817 110.773 140.48 108.516 140.48 108.516L134.143 108.089L129.047 108.727L123.864 110.263L120.439 112.652L117.867 115.895L117.578 119.948L118.808 121.656L118.804 121.644Z" fill="url(#paint3_linear_8_1296)"/>
<path d="M152.802 117.643V124.201L151.039 121.356L152.802 117.643Z" fill="url(#paint4_linear_8_1296)"/>
<path d="M123.643 117.985C129.78 114.455 139.735 114.455 145.871 117.985C147.802 119.094 149.124 120.423 149.841 121.831C150.382 121.348 151.079 120.969 151.367 120.323C150.486 119.13 149.208 118.013 147.518 117.044C140.472 112.991 129.047 112.991 122.001 117.044C120.459 117.93 119.253 118.939 118.388 120.012C118.672 120.674 119.101 121.312 119.673 121.839C120.391 120.431 121.712 119.102 123.643 117.989V117.985Z" fill="url(#paint5_linear_8_1296)"/>
<path opacity="0.5" d="M145.872 113.617C139.735 110.087 129.78 110.087 123.643 113.617C121.1 115.081 119.613 116.92 119.177 118.823C119.609 120.726 121.1 122.569 123.643 124.033C129.78 127.563 139.735 127.563 145.872 124.033C148.415 122.569 149.901 120.73 150.338 118.827C149.905 116.924 148.415 115.081 145.872 113.617Z" fill="#EDE4F1"/>
<path d="M151.364 120.319C151.239 120.594 151.043 120.822 150.815 121.029V120.961L149.18 121.926L147.181 123.773L144.413 124.994L140.588 126.358L137.191 127.156L132.508 127.356L129.48 127.044L123.483 125.481L119.577 122.042C119.609 121.974 119.633 121.903 119.67 121.835C119.097 121.308 118.664 120.67 118.384 120.008C118.28 120.139 118.179 120.271 118.083 120.403L116.713 117.562V124.376C116.713 127.028 118.468 129.685 121.997 131.712C129.043 135.764 140.468 135.764 147.514 131.712C152.87 128.632 154.152 124.101 151.364 120.323V120.319Z" fill="url(#paint6_linear_8_1296)"/>
<path d="M120.987 123.279L119.577 122.038C119.609 121.97 119.633 121.899 119.67 121.831C119.097 121.304 118.664 120.666 118.384 120.004C118.28 120.135 118.179 120.267 118.083 120.399L116.713 117.559V124.372C116.713 126.753 118.135 129.143 120.987 131.073V123.279Z" fill="#9768B2"/>
<path d="M147.514 110.307C140.468 106.254 129.043 106.254 121.997 110.307C114.951 114.36 114.951 120.925 121.997 124.978C129.043 129.031 140.468 129.031 147.514 124.978C154.56 120.925 154.56 114.36 147.514 110.307ZM145.868 124.033C139.731 127.563 129.776 127.563 123.639 124.033C117.502 120.503 117.502 114.782 123.639 111.252C129.776 107.722 139.731 107.722 145.868 111.252C152.004 114.782 152.004 120.503 145.868 124.033Z" fill="#9768B2"/>
<path d="M110.196 132.414L120.194 126.618L121.524 128.764L111.478 134.588L110.196 132.414Z" fill="#EDE4F1"/>
<path d="M111.734 134.017C111.734 134.588 111.333 134.819 110.837 134.532C110.34 134.245 109.939 133.555 109.939 132.984C109.939 132.414 110.34 132.182 110.837 132.47C111.333 132.753 111.734 133.447 111.734 134.017Z" fill="#8C59AA"/>
<path d="M111.734 134.017C111.734 134.588 111.333 134.819 110.837 134.532C110.34 134.245 109.939 133.555 109.939 132.984C109.939 132.414 110.34 132.182 110.837 132.47C111.333 132.753 111.734 133.447 111.734 134.017Z" fill="#8C59AA"/>
<path d="M121.736 128.218C121.736 128.788 121.336 129.019 120.839 128.732C120.342 128.449 119.942 127.755 119.942 127.184C119.942 126.614 120.342 126.383 120.839 126.67C121.336 126.953 121.736 127.647 121.736 128.218Z" fill="#EDE4F1"/>
<path d="M116.653 134.436C116.653 131.987 114.927 129.007 112.796 127.783C111.706 127.156 110.721 127.113 110.019 127.547L88.8768 139.782L94.4008 149.148L115.323 137.017C115.467 136.957 115.6 136.878 115.724 136.786L115.74 136.774C116.309 136.327 116.653 135.525 116.653 134.436Z" fill="#A37ABB"/>
<path d="M90.4071 142.375L114.073 128.768C113.673 128.377 113.244 128.038 112.8 127.783C111.71 127.156 110.725 127.113 110.024 127.547L88.8809 139.782L90.4111 142.375H90.4071Z" fill="#EDE4F1"/>
<path d="M94.3616 149.175C95.8675 148.309 95.867 145.5 94.3604 142.902C92.8538 140.303 90.4116 138.899 88.9057 139.764C87.3998 140.63 87.4003 143.439 88.9069 146.037C90.4135 148.636 92.8557 150.04 94.3616 149.175Z" fill="#EDE4F1"/>
<path d="M92.3619 145.538C92.3619 146.918 91.2363 148.039 89.8503 148.039C88.4643 148.039 87.3386 146.918 87.3386 145.538C87.3386 144.158 88.4643 143.037 89.8503 143.037C91.2363 143.037 92.3619 144.158 92.3619 145.538Z" fill="#A37ABB"/>
<path d="M89.3896 144.62C89.3896 145.027 89.0571 145.358 88.6485 145.358C88.24 145.358 87.9075 145.027 87.9075 144.62C87.9075 144.213 88.24 143.882 88.6485 143.882C89.0571 143.882 89.3896 144.213 89.3896 144.62Z" fill="white"/>
<path d="M91.9213 139.866C90.7796 139.211 89.7581 139.196 89.0531 139.694C89.7381 139.375 90.6394 139.459 91.6368 140.033C93.7679 141.258 95.4944 144.238 95.4944 146.687C95.4944 147.824 95.1179 148.645 94.505 149.076C95.2861 148.713 95.7789 147.828 95.7789 146.523C95.7789 144.074 94.0524 141.094 91.9213 139.87V139.866Z" fill="white"/>
<path d="M145.872 111.252C139.735 107.722 129.78 107.722 123.643 111.252C120.447 113.091 118.92 115.52 119.053 117.93C119.173 115.716 120.703 113.518 123.643 111.827C129.78 108.296 139.735 108.296 145.872 111.827C148.812 113.518 150.342 115.712 150.462 117.93C150.594 115.52 149.068 113.091 145.872 111.252Z" fill="white"/>
<path d="M147.514 124.978C140.468 129.031 129.043 129.031 121.997 124.978C118.6 123.028 116.845 120.487 116.725 117.93C116.593 120.678 118.348 123.454 121.997 125.553C129.043 129.606 140.468 129.606 147.514 125.553C151.163 123.454 152.918 120.678 152.786 117.93C152.661 120.487 150.907 123.024 147.514 124.978Z" fill="white"/>
<g opacity="0.3">
<mask id="mask0_8_1296" style="mask-type:luminance" maskUnits="userSpaceOnUse" x="35" y="83" width="90" height="48">
<path d="M47.2165 90.1425L78.1814 107.215L119.097 83.7681L124.056 93.9081L59.4783 130.918L35.856 118.903L47.2165 90.1425Z" fill="white"/>
</mask>
<g mask="url(#mask0_8_1296)">
<path d="M75.3333 97.3266C73.6388 98.3 73.6388 99.8876 75.3333 100.861L104.135 117.419C104.6 117.687 105.357 117.687 105.821 117.419C106.286 117.152 106.286 116.717 105.821 116.45L77.0197 99.8916C76.2546 99.4528 76.2546 98.7388 77.0197 98.3L79.8118 96.6964C79.5033 96.2337 79.2189 95.747 78.9465 95.2563L75.3373 97.3306L75.3333 97.3266Z" fill="#EDE4F1"/>
<path d="M116.12 110.526L87.3187 93.9678C85.6242 92.9945 82.8682 92.9945 81.1738 93.9678L78.9385 95.2522C79.2149 95.7469 79.4953 96.2296 79.8038 96.6923L82.8562 94.9371C83.6213 94.4983 84.8631 94.4983 85.6282 94.9371L114.43 111.496C114.895 111.763 115.652 111.763 116.116 111.496C116.581 111.228 116.581 110.793 116.116 110.526H116.12Z" fill="#A37ABB"/>
<path d="M116.469 111.045V70.7201L86.2891 53.9623L82.071 53.687L77.9891 56.3198L75.4814 58.4898L104.888 104.926L114.49 110.558L116.469 111.045Z" fill="#A37ABB"/>
<path d="M105.305 116.139L114.326 110.953V71.9766L105.028 76.2807L105.305 116.139Z" fill="#BA9BCC"/>
<path d="M74.0634 58.8008V99.0659L105.745 117.112L106.166 116.941V76.6197L74.0634 58.8008Z" fill="#EDE4F1"/>
<path d="M105.028 75.9893V117.619C105.317 117.611 105.601 117.547 105.817 117.419C106.046 117.288 106.162 117.116 106.166 116.944V116.936V76.6235L105.024 75.9893H105.028Z" fill="#A37ABB"/>
<path d="M96.6241 96.1858L81.6584 87.5814V72.6426L96.6241 81.2469V96.1858Z" fill="white"/>
<path d="M62.0901 105.133C60.3956 106.107 60.3956 107.694 62.0901 108.668L90.8918 125.226C91.3565 125.493 92.1136 125.493 92.5783 125.226C93.0429 124.959 93.0429 124.524 92.5783 124.257L63.7765 107.698C63.0114 107.259 63.0114 106.545 63.7765 106.107L66.5685 104.503C66.2601 104.04 65.9757 103.554 65.7033 103.063L62.0941 105.137L62.0901 105.133Z" fill="#9768B2"/>
<path d="M102.881 118.333L74.0794 101.774C72.385 100.801 69.629 100.801 67.9345 101.774L65.6993 103.059C65.9757 103.554 66.2561 104.036 66.5645 104.499L69.617 102.744C70.3821 102.305 71.6239 102.305 72.389 102.744L101.191 119.302C101.655 119.569 102.413 119.569 102.877 119.302C103.342 119.035 103.342 118.6 102.877 118.333H102.881Z" fill="url(#paint7_linear_8_1296)"/>
<path d="M103.226 118.852L103.23 78.5228L73.05 61.7689L68.8279 61.4937L64.7459 64.1264L62.2423 66.2964L91.6489 112.733L101.247 118.365L103.226 118.852Z" fill="url(#paint8_linear_8_1296)"/>
<path d="M92.0655 123.946L101.087 118.76V79.7832L91.7851 84.0873L92.0655 123.946Z" fill="#B390C6"/>
<path d="M60.8202 66.6074V106.869L92.5061 124.919L92.9267 124.747V84.4264L60.8202 66.6074Z" fill="#9768B2"/>
<path d="M78.642 66.9424L72.3449 63.3404C71.5758 62.9853 70.4502 63.0093 69.7371 63.4161L63.8926 66.7749C63.44 67.0342 63.2557 67.3932 63.3398 67.7323L79.2509 77.2022L92.0334 85.0127L101.087 79.7831L78.642 66.9424Z" fill="white"/>
<path d="M91.7851 83.7959V125.425C92.0736 125.417 92.358 125.353 92.5743 125.226C92.8026 125.094 92.9188 124.923 92.9228 124.751V124.743V84.4302L91.7811 83.7959H91.7851Z" fill="url(#paint9_linear_8_1296)"/>
<path d="M92.9268 84.9492V84.4346L92.7706 84.654L92.9268 84.9492Z" fill="white"/>
<path d="M90.8918 84.905L62.0901 68.3466C60.3956 67.3733 60.3956 65.7857 62.0901 64.8124L67.9345 61.4536C69.629 60.4803 72.385 60.4803 74.0794 61.4536L102.881 78.012C103.346 78.2793 103.346 78.7141 102.881 78.9814C102.417 79.2486 101.659 79.2486 101.195 78.9814L72.393 62.423C71.6279 61.9842 70.3861 61.9842 69.621 62.423L63.7765 65.7817C63.0114 66.2205 63.0114 66.9345 63.7765 67.3733L92.5783 83.9317C93.0429 84.199 93.0429 84.6338 92.5783 84.9011C92.1136 85.1683 91.3565 85.1683 90.8918 84.9011V84.905Z" fill="#9768B2"/>
<path d="M83.385 103.992L68.4193 95.3881V80.4492L83.385 89.0535V103.992Z" fill="white"/>
<path d="M92.5782 84.905C92.1136 85.1722 91.3565 85.1722 90.8918 84.905L62.09 68.3466C61.361 67.9277 60.9484 67.3932 60.8442 66.8467C60.712 67.5727 61.1246 68.3226 62.09 68.8771L90.8918 85.4355C91.3565 85.7028 92.1136 85.7028 92.5782 85.4355C92.9308 85.2321 93.0149 84.9329 92.8346 84.6856C92.7745 84.7653 92.6904 84.8411 92.5782 84.905Z" fill="white"/>
<path d="M48.4864 118.209C46.7919 119.182 46.7919 120.77 48.4864 121.743L77.2881 138.302C77.7528 138.569 78.5099 138.569 78.9746 138.302C79.4392 138.034 79.4392 137.6 78.9746 137.332L50.1728 120.774C49.4077 120.335 49.4077 119.621 50.1728 119.182L52.9649 117.579C52.6564 117.116 52.372 116.629 52.0996 116.139L48.4904 118.213L48.4864 118.209Z" fill="#EDE4F1"/>
<path d="M89.2735 131.405L60.4717 114.846C58.7773 113.873 56.0213 113.873 54.3268 114.846L52.0916 116.131C52.368 116.625 52.6484 117.108 52.9568 117.571L56.0092 115.816C56.7743 115.377 58.0161 115.377 58.7813 115.816L87.583 132.374C88.0477 132.641 88.8048 132.641 89.2695 132.374C89.7341 132.107 89.7341 131.672 89.2695 131.405H89.2735Z" fill="#A37ABB"/>
<path d="M89.622 131.927L89.626 91.5984L59.4422 74.8446L55.2241 74.5693L51.1422 77.1981L48.6385 79.3721L78.0412 125.804L87.6431 131.441L89.622 131.927Z" fill="#A37ABB"/>
<path d="M78.4618 137.017L87.4829 131.832V92.8589L78.1814 97.163L78.4618 137.017Z" fill="#BA9BCC"/>
<path d="M47.2165 79.6831V119.944L78.8984 137.991L79.323 137.823V97.502L47.2165 79.6831Z" fill="#66218E"/>
<path d="M65.0343 80.0142L58.7372 76.4121C57.9681 76.0571 56.8424 76.081 56.1294 76.4879L50.2849 79.8467C49.8323 80.106 49.648 80.465 49.7321 80.804L65.6432 90.274L78.4217 98.0844L87.4748 92.8548L65.0303 80.0142H65.0343Z" fill="white"/>
<path d="M78.1814 96.8677V138.497C78.4698 138.489 78.7542 138.425 78.9705 138.298C79.1988 138.166 79.315 137.994 79.319 137.823V137.815V97.5019L78.1774 96.8677H78.1814Z" fill="#A37ABB"/>
<path d="M89.626 92.1008V91.5981H89.4618L89.4137 91.9412L89.626 92.1008Z" fill="white"/>
<path d="M79.323 98.0248V97.5103L79.1668 97.7296L79.323 98.0248Z" fill="white"/>
<path d="M77.2841 97.9807L48.4823 81.4223C46.7879 80.449 46.7879 78.8614 48.4823 77.8881L54.3268 74.5293C56.0213 73.556 58.7773 73.556 60.4717 74.5293L89.2735 91.0877C89.7381 91.355 89.7381 91.7898 89.2735 92.057C88.8088 92.3243 88.0517 92.3243 87.587 92.057L58.7853 75.4986C58.0202 75.0598 56.7784 75.0598 56.0133 75.4986L50.1688 78.8574C49.4037 79.2962 49.4037 80.0102 50.1688 80.449L78.9705 97.0074C79.4352 97.2747 79.4352 97.7095 78.9705 97.9767C78.5059 98.244 77.7488 98.244 77.2841 97.9767V97.9807Z" fill="#EDE4F1"/>
<path d="M69.7812 117.068L54.8155 108.464V93.5249L69.7812 102.129V117.068Z" fill="white"/>
<path d="M89.2735 92.0569C88.8088 92.3242 88.0517 92.3242 87.587 92.0569L58.7853 75.4985C58.0202 75.0597 56.7784 75.0597 56.0133 75.4985L50.1688 78.8573C49.6681 79.1445 49.4998 79.5514 49.652 79.9184C49.7321 79.7229 49.9044 79.5394 50.1688 79.3878L56.0133 76.0291C56.7784 75.5903 58.0202 75.5903 58.7853 76.0291L87.587 92.5875C88.0517 92.8547 88.8088 92.8547 89.2735 92.5875C89.626 92.384 89.7101 92.0849 89.5299 91.8375C89.4698 91.9173 89.3856 91.9931 89.2735 92.0569Z" fill="white"/>
<path d="M78.9745 97.9806C78.5099 98.2479 77.7528 98.2479 77.2881 97.9806L48.4863 81.4222C47.7573 81.0034 47.3447 80.4689 47.2405 79.9224C47.1083 80.6484 47.5209 81.3983 48.4863 81.9528L77.2881 98.5112C77.7528 98.7784 78.5099 98.7784 78.9745 98.5112C79.3271 98.3077 79.4112 98.0086 79.2309 97.7612C79.1708 97.841 79.0867 97.9168 78.9745 97.9806Z" fill="white"/>
</g>
</g>
<mask id="mask1_8_1296" style="mask-type:luminance" maskUnits="userSpaceOnUse" x="44" y="34" width="83" height="74">
<path d="M44.1721 88.4632L78.1814 107.216L125.33 80.1979L126.063 39.5698L94.6773 34.4878L45.5541 68.6019L44.1721 88.4632Z" fill="white"/>
</mask>
<g mask="url(#mask1_8_1296)">
<path d="M101.699 80.8481L99.296 88.7025L93.1431 92.9189L97.8098 94.8137L96.4118 102.608L101.699 95.8269L106.991 96.525L105.593 90.342L110.26 83.078L104.107 85.9381L101.699 80.8481Z" fill="#BA9BCC"/>
<path d="M113.132 84.7177L110.26 83.0742L105.825 85.1365C105.825 85.1365 105.842 88.1084 105.825 88.1762C105.809 88.248 107.652 88.3357 107.776 88.3357C107.9 88.3357 113.132 84.7177 113.132 84.7177Z" fill="url(#paint10_linear_8_1296)"/>
<path d="M96.4118 102.608L99.284 104.252L100.682 96.4571C100.682 96.4571 99.288 94.9932 99.296 94.9932C99.304 94.9932 97.7297 95.2564 97.7297 95.2564L96.4118 102.608Z" fill="url(#paint11_linear_8_1296)"/>
<path d="M104.572 82.4878L102.168 90.3422L96.0153 94.5625L100.682 96.4573L99.284 104.252L104.572 97.4705L109.863 98.1686L108.465 91.9817L113.132 84.7177L106.979 87.5778L104.572 82.4878Z" fill="#9768B2"/>
<path d="M99.8448 103.534L101.163 96.1941L96.9045 94.4668L102.533 90.6094L104.656 83.6646L106.771 88.1402L112.703 85.3838L113.132 84.7177L106.975 87.5778L104.572 82.4878L102.168 90.3422L96.0112 94.5586L100.682 96.4533L99.284 104.248L99.8448 103.53V103.534Z" fill="#BDA9D7"/>
<path d="M104.572 82.4876L101.699 80.8481L99.296 88.7025L102.168 90.342L104.572 82.4876Z" fill="url(#paint12_linear_8_1296)"/>
<path d="M93.1431 92.919L96.0152 94.5625L102.168 90.3421L99.296 88.7026L93.1431 92.919Z" fill="url(#paint13_linear_8_1296)"/>
<path d="M102.024 90.5416L102.465 90.2903L99.3601 88.4912L99.296 88.7026L99.0917 88.8422L102.024 90.5416Z" fill="#BDA9D7"/>
<path d="M82.0831 92.0293L79.6796 99.8837L73.5226 104.1L78.1934 105.999L76.7914 113.793L82.0831 107.012L87.3747 107.71L85.9727 101.523L90.6435 94.2592L84.4865 97.1193L82.0831 92.0293Z" fill="#BA9BCC"/>
<path d="M93.5156 95.9028L90.6435 94.2593L86.209 96.3216C86.209 96.3216 86.2251 99.2934 86.209 99.3612C86.193 99.433 88.0357 99.5208 88.1599 99.5208C88.284 99.5208 93.5156 95.9028 93.5156 95.9028Z" fill="url(#paint14_linear_8_1296)"/>
<path d="M76.7914 113.793L79.6635 115.437L81.0616 107.642C81.0616 107.642 79.6676 106.178 79.6756 106.178C79.6836 106.178 78.1093 106.441 78.1093 106.441L76.7914 113.793Z" fill="url(#paint15_linear_8_1296)"/>
<path d="M84.9552 93.6729L82.5518 101.527L76.3948 105.744L81.0656 107.638L79.6636 115.433L84.9552 108.652L90.2469 109.35L88.8449 103.167L93.5157 95.9027L87.3587 98.7628L84.9552 93.6729Z" fill="#9768B2"/>
<path d="M80.2244 114.715L81.5423 107.375L77.2841 105.648L82.9123 101.791L85.0353 94.8457L87.1504 99.3214L93.083 96.565L93.5116 95.8988L87.3547 98.7589L84.9512 93.6689L82.5477 101.523L76.3908 105.74L81.0616 107.634L79.6636 115.429L80.2244 114.711V114.715Z" fill="#BDA9D7"/>
<path d="M84.9552 93.6728L82.0831 92.0293L79.6796 99.8837L82.5517 101.527L84.9552 93.6728Z" fill="url(#paint16_linear_8_1296)"/>
<path d="M73.5226 104.1L76.3948 105.744L82.5517 101.527L79.6796 99.8838L73.5226 104.1Z" fill="url(#paint17_linear_8_1296)"/>
<path d="M82.4075 101.723L82.8442 101.471L79.7437 99.6724L79.6796 99.8838L79.4753 100.023L82.4075 101.723Z" fill="#BDA9D7"/>
<path d="M62.4666 103.214L60.0591 111.065L53.9062 115.285L58.573 117.18L57.1749 124.974L62.4666 118.193L67.7543 118.891L66.3562 112.704L71.023 105.44L64.8701 108.3L62.4666 103.214Z" fill="#BA9BCC"/>
<path d="M73.8951 107.084L71.023 105.44L66.5885 107.503C66.5885 107.503 66.6046 110.475 66.5885 110.542C66.5725 110.614 68.4152 110.702 68.5394 110.702C68.6636 110.702 73.8951 107.084 73.8951 107.084Z" fill="url(#paint18_linear_8_1296)"/>
<path d="M65.3348 104.854L62.9313 112.708L56.7784 116.925L61.4451 118.824L60.0471 126.618L65.3348 119.837L70.6265 120.535L69.2284 114.348L73.8952 107.084L67.7423 109.944L65.3348 104.854Z" fill="#9768B2"/>
<path d="M60.6079 125.896L61.9258 118.556L57.6677 116.829L63.2958 112.972L65.4189 106.027L67.534 110.503L73.4666 107.746L73.8952 107.08L67.7383 109.94L65.3348 104.85L62.9313 112.704L56.7744 116.921L61.4451 118.816L60.0471 126.61L60.6079 125.892V125.896Z" fill="#BDA9D7"/>
<path d="M65.3347 104.854L62.4666 103.214L60.0591 111.065L62.9313 112.708L65.3347 104.854Z" fill="url(#paint19_linear_8_1296)"/>
<path d="M88.0517 62.3032L85.6482 70.1576L79.4913 74.374L84.162 76.2688L82.76 84.0673L88.0517 77.286L93.3393 77.984L91.9413 71.7971L96.6121 64.5331L90.4552 67.3932L88.0517 62.3032Z" fill="#BA9BCC"/>
<path d="M99.4843 66.1767L96.6121 64.5332L92.1777 66.5955C92.1777 66.5955 92.1937 69.5673 92.1777 69.6352C92.1616 69.707 94.0043 69.7947 94.1285 69.7947C94.2527 69.7947 99.4843 66.1767 99.4843 66.1767Z" fill="url(#paint20_linear_8_1296)"/>
<path d="M82.76 84.0672L85.6322 85.7107L87.0302 77.9161C87.0302 77.9161 85.6362 76.4521 85.6442 76.4521C85.6522 76.4521 84.0779 76.7154 84.0779 76.7154L82.76 84.0672Z" fill="url(#paint21_linear_8_1296)"/>
<path d="M90.9239 63.9468L88.5204 71.8011L82.3635 76.0175L87.0342 77.9123L85.6322 85.7069L90.9239 78.9255L96.2115 79.6236L94.8135 73.4406L99.4843 66.1766L93.3274 69.0328L90.9239 63.9468Z" fill="#9768B2"/>
<path d="M86.193 84.9889L87.5109 77.6491L83.2527 75.9219L88.8809 72.0645L91.004 65.1196L93.119 69.5953L99.0516 66.8389L99.4803 66.1727L93.3233 69.0329L90.9198 63.9429L88.5164 71.7972L82.3594 76.0136L87.0302 77.9084L85.6322 85.703L86.193 84.9849V84.9889Z" fill="#BDA9D7"/>
<path d="M90.9238 63.9467L88.0517 62.3032L85.6482 70.1576L88.5204 71.8011L90.9238 63.9467Z" fill="url(#paint22_linear_8_1296)"/>
<path d="M79.4913 74.3741L82.3634 76.0176L88.5204 71.8012L85.6482 70.1577L79.4913 74.3741Z" fill="url(#paint23_linear_8_1296)"/>
<path d="M88.3762 71.9966L88.8128 71.7453L85.7123 69.9463L85.6482 70.1577L85.4439 70.2973L88.3762 71.9966Z" fill="#BDA9D7"/>
<path d="M68.4312 73.4844L66.0277 81.3387L59.8748 85.5591L64.5416 87.4539L63.1436 95.2484L68.4312 88.4671L73.7229 89.1652L72.3249 82.9782L76.9916 75.7142L70.8387 78.5744L68.4312 73.4844Z" fill="#BA9BCC"/>
<path d="M79.8638 77.3578L76.9917 75.7144L72.5572 77.7767C72.5572 77.7767 72.5733 80.7485 72.5572 80.8163C72.5412 80.8841 74.3839 80.9759 74.5081 80.9759C74.6322 80.9759 79.8638 77.3578 79.8638 77.3578Z" fill="url(#paint24_linear_8_1296)"/>
<path d="M63.1436 95.2483L66.0157 96.8918L67.4137 89.0973C67.4137 89.0973 66.0197 87.6333 66.0277 87.6333C66.0357 87.6333 64.4615 87.8966 64.4615 87.8966L63.1436 95.2483Z" fill="url(#paint25_linear_8_1296)"/>
<path d="M71.3034 75.1279L68.8999 82.9823L62.747 87.1987L67.4138 89.0935L66.0158 96.888L71.3034 90.1067L76.5951 90.8087L75.1971 84.6218L79.8638 77.3578L73.7109 80.2179L71.3034 75.1279Z" fill="#9768B2"/>
<path d="M66.5765 96.1701L67.8945 88.8303L63.6363 87.103L69.2644 83.2457L71.3875 76.3008L73.5026 80.7765L79.4352 78.0201L79.8638 77.3539L73.7069 80.214L71.3034 75.124L68.8999 82.9784L62.743 87.1948L67.4137 89.0896L66.0157 96.8841L66.5765 96.1661V96.1701Z" fill="#BDA9D7"/>
<path d="M71.3034 75.1279L68.4312 73.4844L66.0277 81.3387L68.8999 82.9822L71.3034 75.1279Z" fill="url(#paint26_linear_8_1296)"/>
<path d="M59.8748 85.5592L62.747 87.1987L68.8999 82.9823L66.0277 81.3389L59.8748 85.5592Z" fill="url(#paint27_linear_8_1296)"/>
<path d="M68.7557 83.1777L69.1963 82.9264L66.0918 81.1313L66.0277 81.3388L65.8234 81.4784L68.7557 83.1777Z" fill="#BDA9D7"/>
<path d="M75.3333 88.6865C73.6388 89.6598 73.6388 91.2475 75.3333 92.2208L104.135 108.779C104.6 109.046 105.357 109.046 105.821 108.779C106.286 108.512 106.286 108.077 105.821 107.81L77.0197 91.2515C76.2546 90.8127 76.2546 90.0986 77.0197 89.6598L79.8118 88.0562C79.5033 87.5935 79.2189 87.1069 78.9465 86.6162L75.3373 88.6905L75.3333 88.6865Z" fill="#522377"/>
<path d="M116.12 101.886L87.3187 85.3276C85.6242 84.3543 82.8682 84.3543 81.1738 85.3276L78.9385 86.6121C79.2149 87.1067 79.4953 87.5894 79.8038 88.0521L82.8562 86.297C83.6213 85.8582 84.8631 85.8582 85.6282 86.297L114.43 102.855C114.895 103.123 115.652 103.123 116.116 102.855C116.581 102.588 116.581 102.153 116.116 101.886H116.12Z" fill="#A37ABB"/>
<path d="M116.469 102.405V62.08L86.2891 45.3261L82.071 45.0469L77.9891 47.6796L75.4814 49.8496L104.888 96.2858L114.49 101.922L116.469 102.405Z" fill="#A37ABB"/>
<path d="M105.305 107.499L114.326 102.313V63.3364L105.028 67.6446L105.305 107.499Z" fill="#BA9BCC"/>
<path d="M74.0634 50.1606V90.4258L105.745 108.472L106.166 108.301V67.9796L74.0634 50.1606Z" fill="#522377"/>
<path d="M91.8812 50.4957L85.5841 46.8936C84.815 46.5385 83.6894 46.5625 82.9763 46.9694L77.1318 50.3281C76.6792 50.5874 76.4949 50.9464 76.579 51.2855L92.4901 60.7554L105.273 68.5659L114.326 63.3363L91.8812 50.4957Z" fill="#BDA9D7"/>
<path d="M105.028 67.3491V108.978C105.317 108.971 105.601 108.907 105.817 108.779C106.046 108.647 106.162 108.476 106.166 108.304V108.296V67.9834L105.024 67.3491H105.028Z" fill="#A37ABB"/>
<path d="M116.469 62.5822V62.0796H116.309L116.261 62.4187L116.469 62.5822Z" fill="#BDA9D7"/>
<path d="M106.166 68.5024V67.9878L106.01 68.2072L106.166 68.5024Z" fill="#BDA9D7"/>
<path d="M104.131 68.4583L75.3293 51.8999C73.6348 50.9265 73.6348 49.3389 75.3293 48.3656L81.1737 45.0068C82.8682 44.0335 85.6242 44.0335 87.3186 45.0068L116.12 61.5652C116.585 61.8325 116.585 62.2673 116.12 62.5346C115.656 62.8018 114.899 62.8018 114.434 62.5346L85.6322 45.9762C84.8671 45.5374 83.6253 45.5374 82.8602 45.9762L77.0157 49.3349C76.2506 49.7737 76.2506 50.4878 77.0157 50.9265L105.817 67.4849C106.282 67.7522 106.282 68.187 105.817 68.4543C105.353 68.7215 104.596 68.7215 104.131 68.4543V68.4583Z" fill="#522377"/>
<path d="M96.6241 87.5456L81.6584 78.9413V64.0024L96.6241 72.6067V87.5456Z" fill="#BDA9D7"/>
<path d="M116.12 62.5345C115.656 62.8017 114.899 62.8017 114.434 62.5345L85.6322 45.9761C84.8671 45.5373 83.6253 45.5373 82.8602 45.9761L77.0157 49.3348C76.515 49.622 76.3467 50.0289 76.499 50.3959C76.5791 50.2004 76.7513 50.0169 77.0157 49.8654L82.8602 46.5066C83.6253 46.0678 84.8671 46.0678 85.6322 46.5066L114.434 63.065C114.899 63.3323 115.656 63.3323 116.12 63.065C116.473 62.8616 116.557 62.5624 116.377 62.3151C116.317 62.3949 116.233 62.4706 116.12 62.5345Z" fill="#BDA9D7"/>
<path d="M105.817 68.4582C105.353 68.7254 104.596 68.7254 104.131 68.4582L75.3292 51.8998C74.6002 51.4809 74.1876 50.9464 74.0834 50.3999C73.9512 51.1259 74.3638 51.8758 75.3292 52.4303L104.131 68.9887C104.596 69.256 105.353 69.256 105.817 68.9887C106.17 68.7853 106.254 68.4861 106.074 68.2388C106.014 68.3186 105.93 68.3944 105.817 68.4582Z" fill="#BDA9D7"/>
<path d="M62.0901 105.133C60.3956 106.107 60.3956 107.694 62.0901 108.668L90.8918 125.226C91.3565 125.493 92.1136 125.493 92.5783 125.226C93.0429 124.959 93.0429 124.524 92.5783 124.257L63.7765 107.698C63.0114 107.259 63.0114 106.545 63.7765 106.107L66.5685 104.503C66.2601 104.04 65.9757 103.554 65.7033 103.063L62.0941 105.137L62.0901 105.133Z" fill="#9768B2"/>
<path d="M102.881 118.333L74.0794 101.774C72.385 100.801 69.629 100.801 67.9345 101.774L65.6993 103.059C65.9757 103.554 66.2561 104.036 66.5645 104.499L69.617 102.744C70.3821 102.305 71.6239 102.305 72.389 102.744L101.191 119.302C101.655 119.569 102.413 119.569 102.877 119.302C103.342 119.035 103.342 118.6 102.877 118.333H102.881Z" fill="url(#paint28_linear_8_1296)"/>
<path d="M103.226 118.852L103.23 78.5228L73.05 61.7689L68.8279 61.4937L64.7459 64.1264L62.2423 66.2964L91.6489 112.733L101.247 118.365L103.226 118.852Z" fill="url(#paint29_linear_8_1296)"/>
<path d="M92.0655 123.946L101.087 118.76V79.7832L91.7851 84.0873L92.0655 123.946Z" fill="#B390C6"/>
<path d="M60.8202 66.6074V106.869L92.5061 124.919L92.9267 124.747V84.4264L60.8202 66.6074Z" fill="#9768B2"/>
<path d="M78.642 66.9424L72.3449 63.3404C71.5758 62.9853 70.4502 63.0093 69.7371 63.4161L63.8926 66.7749C63.44 67.0342 63.2557 67.3932 63.3398 67.7323L79.2509 77.2022L92.0334 85.0127L101.087 79.7831L78.642 66.9424Z" fill="#BDA9D7"/>
<path d="M91.7851 83.7959V125.425C92.0736 125.417 92.358 125.353 92.5743 125.226C92.8026 125.094 92.9188 124.923 92.9228 124.751V124.743V84.4302L91.7811 83.7959H91.7851Z" fill="url(#paint30_linear_8_1296)"/>
<path d="M103.23 79.0251V78.5225H103.069L103.021 78.8655L103.23 79.0251Z" fill="#BDA9D7"/>
<path d="M92.9268 84.9492V84.4346L92.7706 84.654L92.9268 84.9492Z" fill="#BDA9D7"/>
<path d="M90.8918 84.905L62.0901 68.3466C60.3956 67.3733 60.3956 65.7857 62.0901 64.8124L67.9345 61.4536C69.629 60.4803 72.385 60.4803 74.0794 61.4536L102.881 78.012C103.346 78.2793 103.346 78.7141 102.881 78.9814C102.417 79.2486 101.659 79.2486 101.195 78.9814L72.393 62.423C71.6279 61.9842 70.3861 61.9842 69.621 62.423L63.7765 65.7817C63.0114 66.2205 63.0114 66.9345 63.7765 67.3733L92.5783 83.9317C93.0429 84.199 93.0429 84.6338 92.5783 84.9011C92.1136 85.1683 91.3565 85.1683 90.8918 84.9011V84.905Z" fill="#9768B2"/>
<path d="M83.385 103.992L68.4193 95.3881V80.4492L83.385 89.0535V103.992Z" fill="#BDA9D7"/>
<path d="M102.881 78.9812C102.417 79.2485 101.659 79.2485 101.195 78.9812L72.393 62.4228C71.6279 61.9841 70.3861 61.9841 69.621 62.4228L63.7765 65.7816C63.2758 66.0688 63.1075 66.4757 63.2598 66.8427C63.3399 66.6472 63.5121 66.4637 63.7765 66.3121L69.621 62.9534C70.3861 62.5146 71.6279 62.5146 72.393 62.9534L101.195 79.5118C101.659 79.7791 102.417 79.7791 102.881 79.5118C103.234 79.3083 103.318 79.0092 103.138 78.7619C103.077 78.8416 102.993 78.9174 102.881 78.9812Z" fill="#BDA9D7"/>
<path d="M92.5782 84.905C92.1136 85.1722 91.3565 85.1722 90.8918 84.905L62.09 68.3466C61.361 67.9277 60.9484 67.3932 60.8442 66.8467C60.712 67.5727 61.1246 68.3226 62.09 68.8771L90.8918 85.4355C91.3565 85.7028 92.1136 85.7028 92.5782 85.4355C92.9308 85.2321 93.0149 84.9329 92.8346 84.6856C92.7745 84.7653 92.6904 84.8411 92.5782 84.905Z" fill="#BDA9D7"/>
<path d="M89.622 131.265L89.626 90.9403L59.4422 74.1865L55.2241 73.9072L51.1422 76.54L48.6385 78.71L78.0412 125.146L87.6431 130.783L89.622 131.265Z" fill="#A37ABB"/>
<path d="M78.4618 136.359L87.4829 131.173V92.1968L78.1814 96.5049L78.4618 136.359Z" fill="#BA9BCC"/>
<path d="M47.2165 79.0249V119.286L78.8984 137.332L79.323 137.161V96.8398L47.2165 79.0249Z" fill="#522377"/>
<path d="M65.0343 79.356L58.7372 75.7539C57.9681 75.3989 56.8424 75.4228 56.1294 75.8297L50.2849 79.1885C49.8323 79.4478 49.648 79.8068 49.7321 80.1458L65.6432 89.6158L78.4217 97.4262L87.4748 92.1966L65.0303 79.356H65.0343Z" fill="#BDA9D7"/>
<path d="M78.1814 96.2095V137.839C78.4698 137.831 78.7542 137.767 78.9705 137.639C79.1988 137.508 79.315 137.336 79.319 137.165V137.157V96.8437L78.1774 96.2095H78.1814Z" fill="#A37ABB"/>
<path d="M89.626 91.4426V90.9399H89.4618L89.4137 91.279L89.626 91.4426Z" fill="#BDA9D7"/>
<path d="M79.323 97.3667V96.8481L79.1668 97.0675L79.323 97.3667Z" fill="#BDA9D7"/>
<path d="M77.2841 97.3186L48.4823 80.7602C46.7879 79.7869 46.7879 78.1993 48.4823 77.2259L54.3268 73.8672C56.0213 72.8939 58.7773 72.8939 60.4717 73.8672L89.2735 90.4256C89.7381 90.6929 89.7381 91.1277 89.2735 91.3949C88.8088 91.6622 88.0517 91.6622 87.587 91.3949L58.7853 74.8365C58.0202 74.3977 56.7784 74.3977 56.0133 74.8365L50.1688 78.1953C49.4037 78.6341 49.4037 79.3481 50.1688 79.7869L78.9705 96.3453C79.4352 96.6126 79.4352 97.0474 78.9705 97.3146C78.5059 97.5819 77.7488 97.5819 77.2841 97.3146V97.3186Z" fill="#522377"/>
<path d="M69.7812 116.406L54.8155 107.802V92.8628L69.7812 101.467V116.406Z" fill="#BDA9D7"/>
<path d="M89.2735 91.3948C88.8088 91.6621 88.0517 91.6621 87.587 91.3948L58.7853 74.8364C58.0202 74.3976 56.7784 74.3976 56.0133 74.8364L50.1688 78.1952C49.6681 78.4824 49.4998 78.8893 49.652 79.2562C49.7321 79.0608 49.9044 78.8773 50.1688 78.7257L56.0133 75.367C56.7784 74.9282 58.0202 74.9282 58.7853 75.367L87.587 91.9254C88.0517 92.1926 88.8088 92.1926 89.2735 91.9254C89.626 91.7219 89.7101 91.4227 89.5299 91.1754C89.4698 91.2552 89.3856 91.331 89.2735 91.3948Z" fill="#BDA9D7"/>
<path d="M78.9745 97.3185C78.5099 97.5858 77.7528 97.5858 77.2881 97.3185L48.4863 80.7601C47.7573 80.3413 47.3447 79.8067 47.2405 79.2603C47.1083 79.9863 47.5209 80.7362 48.4863 81.2907L77.2881 97.8491C77.7528 98.1163 78.5099 98.1163 78.9745 97.8491C79.3271 97.6456 79.4112 97.3464 79.2309 97.0991C79.1708 97.1789 79.0867 97.2547 78.9745 97.3185Z" fill="#BDA9D7"/>
</g>
<path opacity="0.5" d="M145.771 58.9123L138.869 54.9432L145.771 50.9741L152.673 54.9432L145.771 58.9123Z" fill="#66218E"/>
<path d="M152.673 49.9054L145.771 53.8745V45.9364L152.673 41.9673V49.9054Z" fill="url(#paint31_linear_8_1296)"/>
<path d="M145.771 45.9362L138.869 41.9671L145.771 37.998L152.673 41.9671L145.771 45.9362Z" fill="#9768B2"/>
<path d="M145.771 53.8745L138.869 49.9054V41.9673L145.771 45.9364V53.8745Z" fill="#9768B2"/>
<path d="M143.288 49.5862L141.357 48.4733V46.2554L143.288 47.3643V49.5862Z" fill="white"/>
<path d="M121.171 10.4906L103.217 0.166998C102.86 -0.0364416 102.54 -0.0444197 102.287 0.0912069V0.0792398L100.545 1.08048C100.545 1.08048 101.318 1.35971 101.771 1.52725V14.5474C101.771 15.6085 102.416 16.8371 103.217 17.2958L120.378 27.1607V28.6885L122.136 27.6792H122.128C122.425 27.4957 122.617 27.1008 122.617 26.5304V13.239C122.617 12.1779 121.972 10.9493 121.171 10.4906Z" fill="#77399A"/>
<path d="M119.4 28.6368L101.446 18.3132C100.649 17.8545 100 16.6259 100 15.5648V2.27338C100 1.2123 100.645 0.725644 101.446 1.18438L119.4 11.508C120.197 11.9667 120.846 13.1953 120.846 14.2564V27.5518C120.846 28.6129 120.201 29.0995 119.4 28.6408V28.6368Z" fill="#9768B2"/>
<path d="M119.841 11.1926L101.883 0.869044C101.378 0.577845 100.933 0.669593 100.677 1.04057C100.901 0.980736 101.162 1.02063 101.442 1.18418L119.396 11.5077C120.193 11.9665 120.842 13.1951 120.842 14.2562V27.5516C120.842 27.9385 120.754 28.2496 120.606 28.4651C121.01 28.3574 121.283 27.9186 121.283 27.2364V13.941C121.283 12.88 120.638 11.6514 119.837 11.1926H119.841Z" fill="white"/>
<path d="M107.483 13.7335C107.483 14.5034 106.942 14.8145 106.273 14.4316C105.604 14.0487 105.063 13.1112 105.063 12.3414C105.063 11.5715 105.604 11.2603 106.273 11.6433C106.942 12.0262 107.483 12.9636 107.483 13.7335Z" fill="white"/>
<path d="M111.152 15.8439C111.152 16.6138 110.611 16.9249 109.942 16.542C109.273 16.159 108.733 15.2216 108.733 14.4517C108.733 13.6818 109.273 13.3707 109.942 13.7536C110.611 14.1366 111.152 15.074 111.152 15.8439Z" fill="white"/>
<path d="M114.821 17.9537C114.821 18.7236 114.281 19.0348 113.612 18.6518C112.943 18.2689 112.402 17.3314 112.402 16.5616C112.402 15.7917 112.943 15.4805 113.612 15.8635C114.281 16.2464 114.821 17.1839 114.821 17.9537Z" fill="white"/>
<defs>
<linearGradient id="paint0_linear_8_1296" x1="24.9482" y1="121.463" x2="24.9482" y2="124.875" gradientUnits="userSpaceOnUse">
<stop stop-color="#66218E"/>
<stop offset="1" stop-color="#2B0B3E"/>
</linearGradient>
<linearGradient id="paint1_linear_8_1296" x1="107.342" y1="49.1343" x2="107.342" y2="140.994" gradientUnits="userSpaceOnUse">
<stop stop-color="#66218E"/>
<stop offset="1" stop-color="#A37ABB"/>
</linearGradient>
<linearGradient id="paint2_linear_8_1296" x1="79.7757" y1="44.8057" x2="79.7757" y2="132.184" gradientUnits="userSpaceOnUse">
<stop stop-color="#66218E"/>
<stop offset="1" stop-color="#2B0B3E"/>
</linearGradient>
<linearGradient id="paint3_linear_8_1296" x1="134.311" y1="108.089" x2="134.311" y2="121.656" gradientUnits="userSpaceOnUse">
<stop stop-color="#77399A"/>
<stop offset="1" stop-color="#2B0B3E"/>
</linearGradient>
<linearGradient id="paint4_linear_8_1296" x1="151.92" y1="117.643" x2="151.92" y2="124.201" gradientUnits="userSpaceOnUse">
<stop stop-color="#77399A"/>
<stop offset="1" stop-color="#2B0B3E"/>
</linearGradient>
<linearGradient id="paint5_linear_8_1296" x1="134.878" y1="114.004" x2="134.878" y2="121.839" gradientUnits="userSpaceOnUse">
<stop stop-color="#77399A"/>
<stop offset="1" stop-color="#2B0B3E"/>
</linearGradient>
<linearGradient id="paint6_linear_8_1296" x1="134.755" y1="117.562" x2="134.755" y2="134.751" gradientUnits="userSpaceOnUse">
<stop stop-color="#77399A"/>
<stop offset="1" stop-color="#2B0B3E"/>
</linearGradient>
<linearGradient id="paint7_linear_8_1296" x1="84.4625" y1="101.044" x2="84.4625" y2="119.503" gradientUnits="userSpaceOnUse">
<stop stop-color="#77399A"/>
<stop offset="1" stop-color="#2B0B3E"/>
</linearGradient>
<linearGradient id="paint8_linear_8_1296" x1="82.736" y1="61.4937" x2="82.736" y2="118.852" gradientUnits="userSpaceOnUse">
<stop stop-color="#77399A"/>
<stop offset="1" stop-color="#2B0B3E"/>
</linearGradient>
<linearGradient id="paint9_linear_8_1296" x1="92.352" y1="83.7959" x2="92.352" y2="125.425" gradientUnits="userSpaceOnUse">
<stop stop-color="#77399A"/>
<stop offset="1" stop-color="#2B0B3E"/>
</linearGradient>
<linearGradient id="paint10_linear_8_1296" x1="109.479" y1="83.0742" x2="109.479" y2="88.3357" gradientUnits="userSpaceOnUse">
<stop stop-color="#77399A"/>
<stop offset="1" stop-color="#2B0B3E"/>
</linearGradient>
<linearGradient id="paint11_linear_8_1296" x1="98.5469" y1="94.9932" x2="98.5469" y2="104.252" gradientUnits="userSpaceOnUse">
<stop stop-color="#77399A"/>
<stop offset="1" stop-color="#2B0B3E"/>
</linearGradient>
<linearGradient id="paint12_linear_8_1296" x1="101.934" y1="80.8481" x2="101.934" y2="90.342" gradientUnits="userSpaceOnUse">
<stop stop-color="#77399A"/>
<stop offset="1" stop-color="#2B0B3E"/>
</linearGradient>
<linearGradient id="paint13_linear_8_1296" x1="97.6556" y1="88.7026" x2="97.6556" y2="94.5625" gradientUnits="userSpaceOnUse">
<stop stop-color="#77399A"/>
<stop offset="1" stop-color="#2B0B3E"/>
</linearGradient>
<linearGradient id="paint14_linear_8_1296" x1="89.8623" y1="94.2593" x2="89.8623" y2="99.5208" gradientUnits="userSpaceOnUse">
<stop stop-color="#77399A"/>
<stop offset="1" stop-color="#2B0B3E"/>
</linearGradient>
<linearGradient id="paint15_linear_8_1296" x1="78.9265" y1="106.178" x2="78.9265" y2="115.437" gradientUnits="userSpaceOnUse">
<stop stop-color="#77399A"/>
<stop offset="1" stop-color="#2B0B3E"/>
</linearGradient>
<linearGradient id="paint16_linear_8_1296" x1="82.3174" y1="92.0293" x2="82.3174" y2="101.527" gradientUnits="userSpaceOnUse">
<stop stop-color="#77399A"/>
<stop offset="1" stop-color="#2B0B3E"/>
</linearGradient>
<linearGradient id="paint17_linear_8_1296" x1="78.0372" y1="99.8838" x2="78.0372" y2="105.744" gradientUnits="userSpaceOnUse">
<stop stop-color="#77399A"/>
<stop offset="1" stop-color="#2B0B3E"/>
</linearGradient>
<linearGradient id="paint18_linear_8_1296" x1="70.2418" y1="105.44" x2="70.2418" y2="110.702" gradientUnits="userSpaceOnUse">
<stop stop-color="#77399A"/>
<stop offset="1" stop-color="#2B0B3E"/>
</linearGradient>
<linearGradient id="paint19_linear_8_1296" x1="62.6969" y1="103.214" x2="62.6969" y2="112.708" gradientUnits="userSpaceOnUse">
<stop stop-color="#77399A"/>
<stop offset="1" stop-color="#2B0B3E"/>
</linearGradient>
<linearGradient id="paint20_linear_8_1296" x1="95.8309" y1="64.5332" x2="95.8309" y2="69.7947" gradientUnits="userSpaceOnUse">
<stop stop-color="#77399A"/>
<stop offset="1" stop-color="#2B0B3E"/>
</linearGradient>
<linearGradient id="paint21_linear_8_1296" x1="84.8951" y1="76.4521" x2="84.8951" y2="85.7107" gradientUnits="userSpaceOnUse">
<stop stop-color="#77399A"/>
<stop offset="1" stop-color="#2B0B3E"/>
</linearGradient>
<linearGradient id="paint22_linear_8_1296" x1="88.286" y1="62.3032" x2="88.286" y2="71.8011" gradientUnits="userSpaceOnUse">
<stop stop-color="#77399A"/>
<stop offset="1" stop-color="#2B0B3E"/>
</linearGradient>
<linearGradient id="paint23_linear_8_1296" x1="84.0058" y1="70.1577" x2="84.0058" y2="76.0176" gradientUnits="userSpaceOnUse">
<stop stop-color="#77399A"/>
<stop offset="1" stop-color="#2B0B3E"/>
</linearGradient>
<linearGradient id="paint24_linear_8_1296" x1="76.2105" y1="75.7144" x2="76.2105" y2="80.9759" gradientUnits="userSpaceOnUse">
<stop stop-color="#77399A"/>
<stop offset="1" stop-color="#2B0B3E"/>
</linearGradient>
<linearGradient id="paint25_linear_8_1296" x1="65.2786" y1="87.6333" x2="65.2786" y2="96.8918" gradientUnits="userSpaceOnUse">
<stop stop-color="#77399A"/>
<stop offset="1" stop-color="#2B0B3E"/>
</linearGradient>
<linearGradient id="paint26_linear_8_1296" x1="68.6655" y1="73.4844" x2="68.6655" y2="82.9822" gradientUnits="userSpaceOnUse">
<stop stop-color="#77399A"/>
<stop offset="1" stop-color="#2B0B3E"/>
</linearGradient>
<linearGradient id="paint27_linear_8_1296" x1="64.3874" y1="81.3389" x2="64.3874" y2="87.1987" gradientUnits="userSpaceOnUse">
<stop stop-color="#77399A"/>
<stop offset="1" stop-color="#2B0B3E"/>
</linearGradient>
<linearGradient id="paint28_linear_8_1296" x1="84.4625" y1="101.044" x2="84.4625" y2="119.503" gradientUnits="userSpaceOnUse">
<stop stop-color="#77399A"/>
<stop offset="1" stop-color="#2B0B3E"/>
</linearGradient>
<linearGradient id="paint29_linear_8_1296" x1="82.736" y1="61.4937" x2="82.736" y2="118.852" gradientUnits="userSpaceOnUse">
<stop stop-color="#77399A"/>
<stop offset="1" stop-color="#2B0B3E"/>
</linearGradient>
<linearGradient id="paint30_linear_8_1296" x1="92.352" y1="83.7959" x2="92.352" y2="125.425" gradientUnits="userSpaceOnUse">
<stop stop-color="#77399A"/>
<stop offset="1" stop-color="#2B0B3E"/>
</linearGradient>
<linearGradient id="paint31_linear_8_1296" x1="149.222" y1="41.9673" x2="149.222" y2="53.8745" gradientUnits="userSpaceOnUse">
<stop stop-color="#77399A"/>
<stop offset="1" stop-color="#2B0B3E"/>
</linearGradient>
</defs>
</svg>
